<!-- public/images/background-contact.svg -->
<svg width="1200" height="300" xmlns="http://www.w3.org/2000/svg">
  <rect width="100%" height="100%" fill="#0c4a6e"/>
  <g transform="translate(40, 30)">
    <path fill="white" d="M6.6 10.8c1.8 3.6 4.8 6.6 8.4 8.4l2.8-2.8c0.4-0.4 1-0.4 1.4 0l4 4c0.4 0.4 0.4 1 0 1.4l-2.2 2.2c-1 1-2.6 1.2-3.8 0.6-4.2-2.2-7.8-5.8-10-10-0.6-1.2-0.4-2.8 0.6-3.8L6.6 10c0.4-0.4 1-0.4 1.4 0l4 4c0.4 0.4 0.4 1 0 1.4l-2.8 2.8z"/>
  </g>
  <g transform="translate(180, 30)">
    <path fill="white" d="M2 4c0-1.1 0.9-2 2-2h16c1.1 0 2 0.9 2 2v12c0 1.1-0.9 2-2 2H4c-1.1 0-2-0.9-2-2V4zm2 0l8 5 8-5H4zm0 2.2V16h16V6.2l-8 5-8-5z"/>
  </g>
</svg>
